<svg id="Capa_1" enable-background="new 0 0 511.557 511.557" height="512" viewBox="0 0 511.557 511.557" width="512" xmlns="http://www.w3.org/2000/svg"><g><path d="m123.361 190.895c-8.284 0-15 6.716-15 15s6.716 15 15 15c19.53 0 35.419 15.54 35.419 34.642s-15.889 34.642-35.419 34.642c-8.284 0-15 6.716-15 15s6.716 15 15 15c36.072 0 65.419-28.999 65.419-64.642s-29.347-64.642-65.419-64.642z" stroke="white" stroke-width="2" fill="none"/><path d="m511.557 263.543c0-34.239-22.014-63.412-53.113-74.178 3.787-9.284 5.784-19.268 5.784-29.377 0-38.168-27.711-70.071-64.328-77.161-2.707-40.947-37.304-73.442-79.442-73.442-26.622 0-50.217 12.983-64.679 32.86-14.462-19.878-38.058-32.86-64.68-32.86-42.138 0-76.735 32.495-79.442 73.442-36.617 7.09-64.328 38.994-64.328 77.161 0 10.11 1.997 20.093 5.784 29.377-31.099 10.765-53.113 39.939-53.113 74.178 0 32.233 19.807 60.393 48.59 72.413-4.265 9.771-6.52 20.378-6.52 31.143 0 21.044 8.561 40.875 24.105 55.838 12.364 11.901 27.854 19.489 44.524 21.976 4.435 14.39 12.909 27.38 24.552 37.399 14.884 12.807 33.964 19.86 53.726 19.86 27.565 0 51.971-13.545 66.8-34.234 14.829 20.689 39.235 34.234 66.799 34.234 19.762 0 38.842-7.053 53.726-19.86 11.644-10.019 20.118-23.01 24.553-37.399 16.67-2.487 32.161-10.075 44.524-21.976 15.544-14.963 24.105-34.794 24.105-55.838 0-10.766-2.255-21.372-6.52-31.143 28.786-12.021 48.593-40.181 48.593-72.413zm-322.579 208.629c-25.622 0-47.668-18.708-51.284-43.517 0-.002 0-.004-.001-.005-.347-2.382-.523-4.824-.523-7.257 0-27.999 23.241-50.778 51.808-50.778 8.284 0 15-6.716 15-15s-6.716-15-15-15c-42.396 0-77.356 32.011-81.408 72.84-20.332-6.39-35.5-25.033-35.5-46.356 0-11.371 3.88-22.02 11.222-30.795 3.532-4.223 4.468-10.042 2.437-15.159s-6.703-8.71-12.17-9.361c-24.833-2.954-43.559-23.693-43.559-48.241 0-26.076 20.808-47.406 47.37-48.559 5.681-.247 10.733-3.684 13.049-8.877 2.315-5.193 1.496-11.249-2.117-15.64-7.179-8.725-10.974-19.264-10.974-30.479 0-22.949 16.337-42.222 38.228-47.307 10.39 30.343 39.573 51.798 73.062 51.798 8.284 0 15-6.716 15-15s-6.716-15-15-15c-23.584 0-43.665-17.241-46.712-40.103v-.001c-.279-2.096-.421-4.24-.421-6.373 0-26.808 22.256-48.617 49.612-48.617 28.014-.034 50.27 22.753 49.688 50.111v331.569c-.002.111-.017.218-.017.329 0 .108.008.214.008.322-.176 27.851-23.341 50.456-51.798 50.456zm249.019-160.388c-5.467.65-10.139 4.244-12.17 9.361s-1.096 10.936 2.437 15.159c7.341 8.775 11.222 19.424 11.222 30.795 0 21.323-15.168 39.967-35.499 46.356-4.053-40.829-39.013-72.84-81.409-72.84-8.284 0-15 6.716-15 15s6.716 15 15 15c28.567 0 51.808 22.779 51.808 50.778 0 2.431-.176 4.872-.523 7.257 0 .002 0 .004-.001.006-3.616 24.808-25.662 43.516-51.284 43.516-28.457 0-51.621-22.606-51.799-50.457 0-.108.008-.214.008-.322v-332.241c-.455-27.233 21.813-49.794 49.671-49.768 27.357 0 49.612 21.81 49.612 48.617 0 2.133-.142 4.277-.421 6.373v.001c-3.046 22.863-23.128 40.103-46.712 40.103-8.284 0-15 6.716-15 15s6.716 15 15 15c33.489 0 62.672-21.454 73.062-51.798 21.89 5.085 38.228 24.358 38.228 47.307 0 11.215-3.795 21.755-10.973 30.479-3.613 4.391-4.432 10.447-2.117 15.64 2.316 5.193 7.369 8.63 13.049 8.877 26.562 1.153 47.37 22.483 47.37 48.559.001 24.549-18.726 45.288-43.559 48.242z" stroke="white" stroke-width="2" fill="none"/><path d="m388.195 220.895c8.284 0 15-6.716 15-15s-6.716-15-15-15c-36.072 0-65.419 28.999-65.419 64.642s29.347 64.642 65.419 64.642c8.284 0 15-6.716 15-15s-6.716-15-15-15c-19.53 0-35.419-15.54-35.419-34.642s15.889-34.642 35.419-34.642z" stroke="white" stroke-width="2" fill="none"/></g></svg>