<svg id="Layer_1" enable-background="new 0 0 100 100" height="512" viewBox="0 0 100 100" width="512" xmlns="http://www.w3.org/2000/svg"><g><path d="m66.25 39.99c.76.18 1.67-.27 1.85-1.05.18-.81-.23-1.64-1.05-1.85-2.43-.61-6.81-2.44-8.4-4.35-.5-.6-1.53-.64-2.12 0-.5.54-.57 1.5 0 2.12 2.19 2.41 5.59 4.17 9.72 5.13z" fill="white" stroke="white"/><path d="m69.42 62.16c-.64 1.74-2.63 2.14-4.25 1.67-1.81-.52-3.13-1.96-4.8-2.78-3.29-1.6-6.86-.02-8.96 2.74-.98 1.29-1.57 3.17-3.05 4-1.26.71-2.9.48-4.14-.16-3.18-1.65-2.59-6.51-5.53-8.12-4.95-2.7-10.13 2.03-10.86 5.07-.45 1.87 2.34 2.39 2.85.93.94-2.65 3.76-3.96 5.39-3.8 1.86.18 2.08 2.29 2.65 3.98 1.06 3.14 3.88 5.24 7.3 5.51 1.5.12 3.03-.24 4.27-1.1 1.53-1.06 2.28-2.7 3.29-4.2.9-1.34 2.39-2.57 4.09-2.52 1.71.05 3.05 1.56 4.45 2.37 3.54 2.06 8.56 1.62 10.13-2.66.69-1.81-2.16-2.74-2.83-.93z" fill="white" stroke="white"/><path d="m90.15 37.76c-2.42-8.44-7.46-15.9-14.14-21.1-6.47-5.04-14.26-7.18-22.15-7.44-.62-.9-1.78-1.44-2.87-1.54-1.89-.16-9.19-.01-15.95 3.69-7.25 3.97-12.85 8.66-17.62 15.69-5.17 7.62-8.71 17.17-8.6 26.66.11 10.28 5.45 20.96 12.69 27.29 7.35 6.43 15.94 8.75 25.48 9.8 8.8.97 17.97-1.08 25.58-5.92 14.77-9.39 22.66-29.45 17.58-47.13zm-13.24 39.36c-5.8 5.82-13.5 9.36-21.4 10.24-8.32.92-19.04-1.15-26.31-5.53-7.05-4.25-11.5-8.53-15.13-18.17-3.27-8.69-1.91-18.66 1.69-26.83 5.43-12.34 15.57-21.61 27.97-24.37.32.23.73.34 1.2.29 8.87-.94 16.11-.67 24.28 3.56 6.65 3.45 12.05 9.25 15.46 16.22 7.24 14.81 3.51 33.27-7.76 44.59z" fill="white" stroke="white"/><path d="m33.02 39.99c4.13-.96 7.53-2.73 9.72-5.12.57-.62.5-1.58 0-2.12-.59-.64-1.62-.6-2.12 0-1.59 1.9-5.97 3.74-8.4 4.35-.81.2-1.23 1.04-1.05 1.85.18.77 1.08 1.22 1.85 1.04z" fill="white" stroke="white"/></g></svg>