<svg id="Layer_1" enable-background="new 0 0 512 512" height="512" viewBox="0 0 512 512" width="512" xmlns="http://www.w3.org/2000/svg"><path fill="white" d="m275.188 82.321c1.171 1.937 3.107 3.287 5.33 3.716 54 10.431 99.409 45.922 122.763 95.547l-12.338 7.124c-4.388 2.535-6.889 7.246-6.527 12.295.362 5.05 3.51 9.356 8.218 11.24l59.284 23.694c1.588.635 3.246.949 4.896.949 2.263 0 4.51-.591 6.533-1.759 3.5-2.02 5.838-5.48 6.418-9.493l9.121-63.188c.725-5.014-1.43-9.893-5.623-12.733s-9.523-3.032-13.913-.499l-8.985 5.188c-17.065-34.395-42.656-63.953-74.431-85.867-34.998-24.137-75.981-37.844-118.52-39.64-2.94-.129-5.719 1.38-7.221 3.916s-1.488 5.692.037 8.215zm164.351 86.625c.926 2.065 2.684 3.642 4.837 4.339s4.501.448 6.462-.683l11.361-6.559-7.748 53.677-50.361-20.128 13.431-7.754c3.495-2.018 4.939-6.322 3.371-10.039-23.975-56.803-73.834-97.982-133.826-110.757l-15.095-24.975c73.55 8.382 136.874 54.412 167.568 122.879zm-8.647 203.345-33.246-19.194c-3.552-2.053-8.083-1.082-10.485 2.243-32.278 44.688-84.406 71.368-139.442 71.368-4.788 0-9.599-.199-14.371-.595v-14.226c0-5.068-2.83-9.591-7.384-11.802-4.556-2.213-9.858-1.638-13.842 1.498l-50.163 39.495c-3.186 2.507-5.012 6.262-5.013 10.302 0 4.04 1.827 7.796 5.013 10.306l50.162 39.492c2.374 1.869 5.217 2.827 8.093 2.827 1.946 0 3.907-.438 5.746-1.331 4.557-2.212 7.388-6.732 7.388-11.8v-10.394c4.782.301 9.589.452 14.371.452 73.987 0 143.422-36.316 185.74-97.146 1.279-1.838 1.729-4.127 1.241-6.312-.488-2.184-1.869-4.064-3.808-5.183zm-183.173 92.643c-7.193 0-14.446-.368-21.559-1.095-2.251-.225-4.495.505-6.174 2.021-1.68 1.518-2.638 3.675-2.638 5.938v13.132l-42.611-33.548 42.611-33.549v15.494c0 4.036 3.007 7.44 7.013 7.938 7.696.957 15.555 1.442 23.358 1.442 30.248 0 60.313-7.361 86.943-21.288 23.631-12.358 44.634-29.881 61.117-50.927l19.418 11.212c-39.67 52.277-101.635 83.23-167.478 83.23zm-164.336-136.831c4.004-1.687 5.93-6.263 4.337-10.306-7.9-20.046-11.906-41.24-11.906-62.993 0-35.477 10.601-69.246 30.726-98.104l12.326 7.116c4.389 2.534 9.72 2.345 13.912-.494 4.193-2.839 6.348-7.719 5.625-12.737l-9.122-63.189c-.58-4.013-2.918-7.473-6.417-9.493s-7.664-2.315-11.429-.811l-59.285 23.696c-4.704 1.879-7.851 6.185-8.214 11.237s2.136 9.764 6.524 12.298l8.987 5.188c-24.796 37.148-37.858 80.277-37.858 125.292 0 32.479 6.741 63.832 20.035 93.185 1.153 2.546 3.552 4.306 6.327 4.642.321.038.643.058.961.058 2.437 0 4.763-1.114 6.29-3.058 7.419-9.442 17.164-16.886 28.181-21.527zm-31.914 1.982c-9.216-23.961-13.88-49.227-13.88-75.281 0-44.591 13.788-87.184 39.873-123.174 1.33-1.834 1.819-4.147 1.347-6.363s-1.862-4.127-3.824-5.26l-11.375-6.567 50.36-20.128 7.749 53.676-13.41-7.742c-3.491-2.015-7.938-1.119-10.374 2.093-24.938 32.871-38.12 72.107-38.12 113.465 0 21.251 3.502 42.021 10.418 61.851-6.816 3.618-13.134 8.143-18.764 13.43zm59.302 7.415c-30.726 0-55.724 24.998-55.724 55.725 0 30.726 24.998 55.724 55.724 55.724 30.727 0 55.724-24.998 55.724-55.724 0-30.727-24.997-55.725-55.724-55.725zm0 95.448c-21.904 0-39.724-17.82-39.724-39.724s17.82-39.725 39.724-39.725 39.724 17.82 39.724 39.725c0 21.904-17.82 39.724-39.724 39.724zm375.64-159.739-41.33-23.862c-2.476-1.429-5.524-1.429-8 0l-41.33 23.862c-2.475 1.429-4 4.069-4 6.928v47.724c0 2.858 1.525 5.499 4 6.928l41.33 23.862c1.238.715 2.619 1.072 4 1.072s2.762-.357 4-1.072l41.33-23.862c2.475-1.429 4-4.069 4-6.928v-47.724c0-2.859-1.525-5.499-4-6.928zm-12 50.032-33.33 19.244-33.33-19.244v-38.485l33.33-19.243 33.33 19.243zm-320.716-208.839h109.282c2.887 0 5.55-1.555 6.968-4.07 1.418-2.514 1.372-5.598-.121-8.068l-54.641-90.402c-1.449-2.397-4.046-3.862-6.847-3.862s-5.398 1.465-6.847 3.862l-54.641 90.402c-1.493 2.471-1.54 5.554-.121 8.068 1.419 2.515 4.082 4.07 6.968 4.07zm54.641-82.936 40.458 66.937h-80.916zm173.12 248.59c3.088-1.188 5.126-4.156 5.126-7.466v-33.18c0-3.31-2.038-6.277-5.126-7.466l-16.467-6.338c-2.445-8.785-5.942-17.22-10.435-25.171l7.167-16.136c1.344-3.025.686-6.564-1.654-8.904l-23.462-23.461c-2.341-2.34-5.88-2.996-8.904-1.655l-16.143 7.169c-7.95-4.492-16.383-7.988-25.163-10.433l-6.34-16.472c-1.188-3.089-4.156-5.126-7.466-5.126h-33.179c-3.31 0-6.277 2.038-7.466 5.126l-6.341 16.472c-8.78 2.445-17.213 5.941-25.163 10.433l-16.143-7.169c-3.025-1.342-6.563-.686-8.904 1.655l-23.461 23.461c-2.34 2.34-2.998 5.879-1.654 8.904l7.168 16.141c-4.492 7.95-7.989 16.384-10.434 25.166l-16.47 6.339c-3.089 1.188-5.126 4.156-5.126 7.466v33.179c0 3.31 2.038 6.277 5.126 7.466l16.468 6.339c2.445 8.785 5.942 17.222 10.435 25.171l-7.167 16.137c-1.344 3.024-.686 6.563 1.654 8.904l23.461 23.461c2.34 2.339 5.878 2.995 8.904 1.654l16.144-7.17c7.95 4.492 16.384 7.989 25.162 10.433l6.34 16.473c1.188 3.088 4.156 5.126 7.466 5.126h33.179c3.31 0 6.277-2.038 7.466-5.126l6.338-16.468c8.785-2.444 17.22-5.941 25.171-10.435l16.136 7.167c3.026 1.344 6.564.687 8.904-1.654l23.461-23.462c2.34-2.341 2.998-5.88 1.654-8.904l-7.169-16.143c4.492-7.951 7.988-16.384 10.432-25.163zm-30.97-1.499c-2.378 9.996-6.325 19.515-11.729 28.291-1.383 2.246-1.57 5.03-.499 7.441l6.611 14.887-15.693 15.693-14.879-6.609c-2.412-1.071-5.197-.883-7.443.5-8.774 5.405-18.295 9.352-28.297 11.73-2.567.611-4.667 2.447-5.615 4.909l-5.844 15.184h-22.193l-5.846-15.188c-.947-2.462-3.048-4.298-5.614-4.908-9.995-2.379-19.513-6.325-28.291-11.729-2.247-1.383-5.032-1.571-7.441-.499l-14.887 6.611-15.693-15.692 6.609-14.881c1.071-2.411.884-5.195-.5-7.442-5.403-8.773-9.35-18.294-11.731-28.299-.611-2.565-2.447-4.666-4.909-5.613l-15.183-5.845v-22.193l15.185-5.845c2.462-.947 4.298-3.047 4.909-5.614 2.38-9.999 6.326-19.519 11.73-28.293 1.383-2.247 1.57-5.031.499-7.442l-6.61-14.885 15.693-15.693 14.887 6.611c2.411 1.07 5.195.884 7.442-.5 8.775-5.404 18.294-9.35 28.291-11.729 2.566-.611 4.666-2.447 5.613-4.909l5.846-15.188h22.193l5.846 15.187c.947 2.462 3.047 4.298 5.613 4.909 9.998 2.379 19.517 6.326 28.292 11.729 2.247 1.382 5.031 1.57 7.442.499l14.886-6.611 15.694 15.693-6.609 14.879c-1.071 2.412-.884 5.196.5 7.443 5.404 8.775 9.352 18.296 11.731 28.298.611 2.566 2.447 4.667 4.909 5.614l15.183 5.844v22.193l-15.188 5.846c-2.463.949-4.299 3.049-4.91 5.616zm-94.486-88.42c-36.317 0-65.863 29.546-65.863 65.864 0 36.317 29.546 65.864 65.863 65.864s65.864-29.547 65.864-65.864c0-36.318-29.547-65.864-65.864-65.864zm0 115.727c-27.495 0-49.863-22.369-49.863-49.864s22.369-49.864 49.863-49.864c27.495 0 49.864 22.369 49.864 49.864s-22.369 49.864-49.864 49.864z"/></svg>